Coordinates
version=1
nRows=9
nColumns=24
inDegrees=yes

Units are S.I. units (second, meters, Newtons, ...)
Angles are in degrees.

endheader
time	pelvis_tilt	pelvis_list	pelvis_rotation	pelvis_tx	pelvis_ty	pelvis_tz	hip_flexion_r	hip_adduction_r	hip_rotation_r	knee_angle_r	ankle_angle_r	subtalar_angle_r	mtp_angle_r	hip_flexion_l	hip_adduction_l	hip_rotation_l	knee_angle_l	ankle_angle_l	subtalar_angle_l	mtp_angle_l	lumbar_extension	lumbar_bending	lumbar_rotation
      0.70500000	     -0.42230595	      2.22000496	      5.01964499	     -0.40713226	      1.07777194	      0.26834474	      9.24824597	      0.60541585	     -4.68341291	    -20.73413349	     11.92356374	     -5.29381408	      4.58327296	     18.28441567	     -1.56885423	     -4.27977951	    -68.80023410	      7.09190400	      4.47196645	      4.29073856	    -15.27722104	      1.55144974	     -1.74746442
      0.70916667	     -0.36195830	      2.37782663	      4.92058296	     -0.40198695	      1.07887784	      0.26871278	      8.67715862	      0.49731525	     -4.61020140	    -20.31885048	     11.95635897	     -5.21087162	      4.56983078	     18.64712400	     -1.39721995	     -4.45869739	    -68.15558780	      7.37110924	      4.77947518	      4.31550120	    -15.40906866	      1.32651373	     -1.54591362
      0.71333333	     -0.31767745	      2.52817289	      4.81734325	     -0.39682326	      1.07991393	      0.26907324	      8.12547692	      0.39272394	     -4.55058443	    -19.90418566	     11.96224297	     -5.13825896	      4.55723130	     19.01253766	     -1.23548545	     -4.65050328	    -67.46165450	      7.63646803	      5.04501063	      4.33975323	    -15.50870653	      1.09595079	     -1.36655455
      0.71750000	     -0.28455725	      2.68361572	      4.70219251	     -0.39166420	      1.08089006	      0.26944635	      7.59220519	      0.27876478	     -4.49233846	    -19.49889647	     11.95163453	     -5.05441024	      4.54833285	     19.37340597	     -1.07171220	     -4.86044471	    -66.71518404	      7.89547869	      5.28764682	      4.35948049	    -15.59302196	      0.84206722	     -1.22657744
      0.72166667	     -0.22281735	      2.81213825	      4.58169912	     -0.38651604	      1.08186660	      0.26980279	      7.01983054	      0.19772369	     -4.41458164	    -19.06567807	     11.95912249	     -4.98167291	      4.53095628	     19.69151511	     -0.93976269	     -5.06683666	    -65.92572460	      8.14226683	      5.51674969	      4.39410830	    -15.72103436	      0.62941955	     -0.93748344
      0.72583333	     -0.18968687	      2.94990404	      4.45307382	     -0.38135639	      1.08273648	      0.27017128	      6.48931813	      0.10074052	     -4.34146625	    -18.65871700	     11.98125595	     -4.90319031	      4.51929426	     20.02274262	     -0.80004420	     -5.28991455	    -65.08453536	      8.37239019	      5.74439354	      4.42026500	    -15.79986797	      0.40566215	     -0.76767524
      0.73000000	     -0.15184359	      3.08449895	      4.31858853	     -0.37620514	      1.08358379	      0.27052710	      5.95535698	      0.00435558	     -4.26820230	    -18.24922745	     11.98525426	     -4.82419962	      4.50909464	     20.33078800	     -0.66163728	     -5.51317339	    -64.18927012	      8.59010751	      5.93723806	      4.44308676	    -15.88704161	      0.18666200	     -0.58693295
      0.73416667	     -0.11126046	      3.21948708	      4.17761258	     -0.37105223	      1.08439046	      0.27088355	      5.42033424	     -0.09501042	     -4.19317587	    -17.84133219	     11.98543294	     -4.73450269	      4.49939340	     20.61750786	     -0.52283512	     -5.73933952	    -63.24293690	      8.79443301	      6.10090675	      4.46537614	    -15.97986242	     -0.03366265	     -0.38669285
      0.73833333	     -0.09642067	      3.34034701	      4.03757632	     -0.36589933	      1.08508080	      0.27121628	      4.91956489	     -0.18472852	     -4.12406760	    -17.44382377	     11.99800673	     -4.64723168	      4.49125072	     20.92097499	     -0.39676197	     -5.96415240	    -62.25871149	      8.98486551	      6.25042149	      4.48439885	    -16.03368332	     -0.23959893	     -0.20160238
